# File exported by Houdini 21.0.440 (www.sidefx.com)
# 1024 points
# 5766 vertices
# 1922 primitives
# Bounds: [0, -0.5, -0.5] to [0, 0.5, 0.5]
g 
v 0 -0.5 -0.5
v 0 -0.467741936 -0.5
v 0 -0.435483873 -0.5
v 0 -0.403225809 -0.5
v 0 -0.370967746 -0.5
v 0 -0.338709682 -0.5
v 0 -0.306451619 -0.5
v 0 -0.274193555 -0.5
v 0 -0.241935492 -0.5
v 0 -0.209677428 -0.5
v 0 -0.177419364 -0.5
v 0 -0.145161301 -0.5
v 0 -0.112903237 -0.5
v 0 -0.0806451738 -0.5
v 0 -0.0483871102 -0.5
v 0 -0.0161290467 -0.5
v 0 0.0161290169 -0.5
v 0 0.0483870506 -0.5
v 0 0.080645144 -0.5
v 0 0.112903237 -0.5
v 0 0.145161271 -0.5
v 0 0.177419305 -0.5
v 0 0.209677398 -0.5
v 0 0.241935492 -0.5
v 0 0.274193525 -0.5
v 0 0.306451559 -0.5
v 0 0.338709652 -0.5
v 0 0.370967746 -0.5
v 0 0.40322578 -0.5
v 0 0.435483813 -0.5
v 0 0.467741907 -0.5
v 0 0.5 -0.5
v 0 -0.5 -0.467741936
v 0 -0.467741936 -0.467741936
v 0 -0.435483873 -0.467741936
v 0 -0.403225809 -0.467741936
v 0 -0.370967746 -0.467741936
v 0 -0.338709682 -0.467741936
v 0 -0.306451619 -0.467741936
v 0 -0.274193555 -0.467741936
v 0 -0.241935492 -0.467741936
v 0 -0.209677428 -0.467741936
v 0 -0.177419364 -0.467741936
v 0 -0.145161301 -0.467741936
v 0 -0.112903237 -0.467741936
v 0 -0.0806451738 -0.467741936
v 0 -0.0483871102 -0.467741936
v 0 -0.0161290467 -0.467741936
v 0 0.0161290169 -0.467741936
v 0 0.0483870506 -0.467741936
v 0 0.080645144 -0.467741936
v 0 0.112903237 -0.467741936
v 0 0.145161271 -0.467741936
v 0 0.177419305 -0.467741936
v 0 0.209677398 -0.467741936
v 0 0.241935492 -0.467741936
v 0 0.274193525 -0.467741936
v 0 0.306451559 -0.467741936
v 0 0.338709652 -0.467741936
v 0 0.370967746 -0.467741936
v 0 0.40322578 -0.467741936
v 0 0.435483813 -0.467741936
v 0 0.467741907 -0.467741936
v 0 0.5 -0.467741936
v 0 -0.5 -0.435483873
v 0 -0.467741936 -0.435483873
v 0 -0.435483873 -0.435483873
v 0 -0.403225809 -0.435483873
v 0 -0.370967746 -0.435483873
v 0 -0.338709682 -0.435483873
v 0 -0.306451619 -0.435483873
v 0 -0.274193555 -0.435483873
v 0 -0.241935492 -0.435483873
v 0 -0.209677428 -0.435483873
v 0 -0.177419364 -0.435483873
v 0 -0.145161301 -0.435483873
v 0 -0.112903237 -0.435483873
v 0 -0.0806451738 -0.435483873
v 0 -0.0483871102 -0.435483873
v 0 -0.0161290467 -0.435483873
v 0 0.0161290169 -0.435483873
v 0 0.0483870506 -0.435483873
v 0 0.080645144 -0.435483873
v 0 0.112903237 -0.435483873
v 0 0.145161271 -0.435483873
v 0 0.177419305 -0.435483873
v 0 0.209677398 -0.435483873
v 0 0.241935492 -0.435483873
v 0 0.274193525 -0.435483873
v 0 0.306451559 -0.435483873
v 0 0.338709652 -0.435483873
v 0 0.370967746 -0.435483873
v 0 0.40322578 -0.435483873
v 0 0.435483813 -0.435483873
v 0 0.467741907 -0.435483873
v 0 0.5 -0.435483873
v 0 -0.5 -0.403225809
v 0 -0.467741936 -0.403225809
v 0 -0.435483873 -0.403225809
v 0 -0.403225809 -0.403225809
v 0 -0.370967746 -0.403225809
v 0 -0.338709682 -0.403225809
v 0 -0.306451619 -0.403225809
v 0 -0.274193555 -0.403225809
v 0 -0.241935492 -0.403225809
v 0 -0.209677428 -0.403225809
v 0 -0.177419364 -0.403225809
v 0 -0.145161301 -0.403225809
v 0 -0.112903237 -0.403225809
v 0 -0.0806451738 -0.403225809
v 0 -0.0483871102 -0.403225809
v 0 -0.0161290467 -0.403225809
v 0 0.0161290169 -0.403225809
v 0 0.0483870506 -0.403225809
v 0 0.080645144 -0.403225809
v 0 0.112903237 -0.403225809
v 0 0.145161271 -0.403225809
v 0 0.177419305 -0.403225809
v 0 0.209677398 -0.403225809
v 0 0.241935492 -0.403225809
v 0 0.274193525 -0.403225809
v 0 0.306451559 -0.403225809
v 0 0.338709652 -0.403225809
v 0 0.370967746 -0.403225809
v 0 0.40322578 -0.403225809
v 0 0.435483813 -0.403225809
v 0 0.467741907 -0.403225809
v 0 0.5 -0.403225809
v 0 -0.5 -0.370967746
v 0 -0.467741936 -0.370967746
v 0 -0.435483873 -0.370967746
v 0 -0.403225809 -0.370967746
v 0 -0.370967746 -0.370967746
v 0 -0.338709682 -0.370967746
v 0 -0.306451619 -0.370967746
v 0 -0.274193555 -0.370967746
v 0 -0.241935492 -0.370967746
v 0 -0.209677428 -0.370967746
v 0 -0.177419364 -0.370967746
v 0 -0.145161301 -0.370967746
v 0 -0.112903237 -0.370967746
v 0 -0.0806451738 -0.370967746
v 0 -0.0483871102 -0.370967746
v 0 -0.0161290467 -0.370967746
v 0 0.0161290169 -0.370967746
v 0 0.0483870506 -0.370967746
v 0 0.080645144 -0.370967746
v 0 0.112903237 -0.370967746
v 0 0.145161271 -0.370967746
v 0 0.177419305 -0.370967746
v 0 0.209677398 -0.370967746
v 0 0.241935492 -0.370967746
v 0 0.274193525 -0.370967746
v 0 0.306451559 -0.370967746
v 0 0.338709652 -0.370967746
v 0 0.370967746 -0.370967746
v 0 0.40322578 -0.370967746
v 0 0.435483813 -0.370967746
v 0 0.467741907 -0.370967746
v 0 0.5 -0.370967746
v 0 -0.5 -0.338709682
v 0 -0.467741936 -0.338709682
v 0 -0.435483873 -0.338709682
v 0 -0.403225809 -0.338709682
v 0 -0.370967746 -0.338709682
v 0 -0.338709682 -0.338709682
v 0 -0.306451619 -0.338709682
v 0 -0.274193555 -0.338709682
v 0 -0.241935492 -0.338709682
v 0 -0.209677428 -0.338709682
v 0 -0.177419364 -0.338709682
v 0 -0.145161301 -0.338709682
v 0 -0.112903237 -0.338709682
v 0 -0.0806451738 -0.338709682
v 0 -0.0483871102 -0.338709682
v 0 -0.0161290467 -0.338709682
v 0 0.0161290169 -0.338709682
v 0 0.0483870506 -0.338709682
v 0 0.080645144 -0.338709682
v 0 0.112903237 -0.338709682
v 0 0.145161271 -0.338709682
v 0 0.177419305 -0.338709682
v 0 0.209677398 -0.338709682
v 0 0.241935492 -0.338709682
v 0 0.274193525 -0.338709682
v 0 0.306451559 -0.338709682
v 0 0.338709652 -0.338709682
v 0 0.370967746 -0.338709682
v 0 0.40322578 -0.338709682
v 0 0.435483813 -0.338709682
v 0 0.467741907 -0.338709682
v 0 0.5 -0.338709682
v 0 -0.5 -0.306451619
v 0 -0.467741936 -0.306451619
v 0 -0.435483873 -0.306451619
v 0 -0.403225809 -0.306451619
v 0 -0.370967746 -0.306451619
v 0 -0.338709682 -0.306451619
v 0 -0.306451619 -0.306451619
v 0 -0.274193555 -0.306451619
v 0 -0.241935492 -0.306451619
v 0 -0.209677428 -0.306451619
v 0 -0.177419364 -0.306451619
v 0 -0.145161301 -0.306451619
v 0 -0.112903237 -0.306451619
v 0 -0.0806451738 -0.306451619
v 0 -0.0483871102 -0.306451619
v 0 -0.0161290467 -0.306451619
v 0 0.0161290169 -0.306451619
v 0 0.0483870506 -0.306451619
v 0 0.080645144 -0.306451619
v 0 0.112903237 -0.306451619
v 0 0.145161271 -0.306451619
v 0 0.177419305 -0.306451619
v 0 0.209677398 -0.306451619
v 0 0.241935492 -0.306451619
v 0 0.274193525 -0.306451619
v 0 0.306451559 -0.306451619
v 0 0.338709652 -0.306451619
v 0 0.370967746 -0.306451619
v 0 0.40322578 -0.306451619
v 0 0.435483813 -0.306451619
v 0 0.467741907 -0.306451619
v 0 0.5 -0.306451619
v 0 -0.5 -0.274193555
v 0 -0.467741936 -0.274193555
v 0 -0.435483873 -0.274193555
v 0 -0.403225809 -0.274193555
v 0 -0.370967746 -0.274193555
v 0 -0.338709682 -0.274193555
v 0 -0.306451619 -0.274193555
v 0 -0.274193555 -0.274193555
v 0 -0.241935492 -0.274193555
v 0 -0.209677428 -0.274193555
v 0 -0.177419364 -0.274193555
v 0 -0.145161301 -0.274193555
v 0 -0.112903237 -0.274193555
v 0 -0.0806451738 -0.274193555
v 0 -0.0483871102 -0.274193555
v 0 -0.0161290467 -0.274193555
v 0 0.0161290169 -0.274193555
v 0 0.0483870506 -0.274193555
v 0 0.080645144 -0.274193555
v 0 0.112903237 -0.274193555
v 0 0.145161271 -0.274193555
v 0 0.177419305 -0.274193555
v 0 0.209677398 -0.274193555
v 0 0.241935492 -0.274193555
v 0 0.274193525 -0.274193555
v 0 0.306451559 -0.274193555
v 0 0.338709652 -0.274193555
v 0 0.370967746 -0.274193555
v 0 0.40322578 -0.274193555
v 0 0.435483813 -0.274193555
v 0 0.467741907 -0.274193555
v 0 0.5 -0.274193555
v 0 -0.5 -0.241935492
v 0 -0.467741936 -0.241935492
v 0 -0.435483873 -0.241935492
v 0 -0.403225809 -0.241935492
v 0 -0.370967746 -0.241935492
v 0 -0.338709682 -0.241935492
v 0 -0.306451619 -0.241935492
v 0 -0.274193555 -0.241935492
v 0 -0.241935492 -0.241935492
v 0 -0.209677428 -0.241935492
v 0 -0.177419364 -0.241935492
v 0 -0.145161301 -0.241935492
v 0 -0.112903237 -0.241935492
v 0 -0.0806451738 -0.241935492
v 0 -0.0483871102 -0.241935492
v 0 -0.0161290467 -0.241935492
v 0 0.0161290169 -0.241935492
v 0 0.0483870506 -0.241935492
v 0 0.080645144 -0.241935492
v 0 0.112903237 -0.241935492
v 0 0.145161271 -0.241935492
v 0 0.177419305 -0.241935492
v 0 0.209677398 -0.241935492
v 0 0.241935492 -0.241935492
v 0 0.274193525 -0.241935492
v 0 0.306451559 -0.241935492
v 0 0.338709652 -0.241935492
v 0 0.370967746 -0.241935492
v 0 0.40322578 -0.241935492
v 0 0.435483813 -0.241935492
v 0 0.467741907 -0.241935492
v 0 0.5 -0.241935492
v 0 -0.5 -0.209677428
v 0 -0.467741936 -0.209677428
v 0 -0.435483873 -0.209677428
v 0 -0.403225809 -0.209677428
v 0 -0.370967746 -0.209677428
v 0 -0.338709682 -0.209677428
v 0 -0.306451619 -0.209677428
v 0 -0.274193555 -0.209677428
v 0 -0.241935492 -0.209677428
v 0 -0.209677428 -0.209677428
v 0 -0.177419364 -0.209677428
v 0 -0.145161301 -0.209677428
v 0 -0.112903237 -0.209677428
v 0 -0.0806451738 -0.209677428
v 0 -0.0483871102 -0.209677428
v 0 -0.0161290467 -0.209677428
v 0 0.0161290169 -0.209677428
v 0 0.0483870506 -0.209677428
v 0 0.080645144 -0.209677428
v 0 0.112903237 -0.209677428
v 0 0.145161271 -0.209677428
v 0 0.177419305 -0.209677428
v 0 0.209677398 -0.209677428
v 0 0.241935492 -0.209677428
v 0 0.274193525 -0.209677428
v 0 0.306451559 -0.209677428
v 0 0.338709652 -0.209677428
v 0 0.370967746 -0.209677428
v 0 0.40322578 -0.209677428
v 0 0.435483813 -0.209677428
v 0 0.467741907 -0.209677428
v 0 0.5 -0.209677428
v 0 -0.5 -0.177419364
v 0 -0.467741936 -0.177419364
v 0 -0.435483873 -0.177419364
v 0 -0.403225809 -0.177419364
v 0 -0.370967746 -0.177419364
v 0 -0.338709682 -0.177419364
v 0 -0.306451619 -0.177419364
v 0 -0.274193555 -0.177419364
v 0 -0.241935492 -0.177419364
v 0 -0.209677428 -0.177419364
v 0 -0.177419364 -0.177419364
v 0 -0.145161301 -0.177419364
v 0 -0.112903237 -0.177419364
v 0 -0.0806451738 -0.177419364
v 0 -0.0483871102 -0.177419364
v 0 -0.0161290467 -0.177419364
v 0 0.0161290169 -0.177419364
v 0 0.0483870506 -0.177419364
v 0 0.080645144 -0.177419364
v 0 0.112903237 -0.177419364
v 0 0.145161271 -0.177419364
v 0 0.177419305 -0.177419364
v 0 0.209677398 -0.177419364
v 0 0.241935492 -0.177419364
v 0 0.274193525 -0.177419364
v 0 0.306451559 -0.177419364
v 0 0.338709652 -0.177419364
v 0 0.370967746 -0.177419364
v 0 0.40322578 -0.177419364
v 0 0.435483813 -0.177419364
v 0 0.467741907 -0.177419364
v 0 0.5 -0.177419364
v 0 -0.5 -0.145161301
v 0 -0.467741936 -0.145161301
v 0 -0.435483873 -0.145161301
v 0 -0.403225809 -0.145161301
v 0 -0.370967746 -0.145161301
v 0 -0.338709682 -0.145161301
v 0 -0.306451619 -0.145161301
v 0 -0.274193555 -0.145161301
v 0 -0.241935492 -0.145161301
v 0 -0.209677428 -0.145161301
v 0 -0.177419364 -0.145161301
v 0 -0.145161301 -0.145161301
v 0 -0.112903237 -0.145161301
v 0 -0.0806451738 -0.145161301
v 0 -0.0483871102 -0.145161301
v 0 -0.0161290467 -0.145161301
v 0 0.0161290169 -0.145161301
v 0 0.0483870506 -0.145161301
v 0 0.080645144 -0.145161301
v 0 0.112903237 -0.145161301
v 0 0.145161271 -0.145161301
v 0 0.177419305 -0.145161301
v 0 0.209677398 -0.145161301
v 0 0.241935492 -0.145161301
v 0 0.274193525 -0.145161301
v 0 0.306451559 -0.145161301
v 0 0.338709652 -0.145161301
v 0 0.370967746 -0.145161301
v 0 0.40322578 -0.145161301
v 0 0.435483813 -0.145161301
v 0 0.467741907 -0.145161301
v 0 0.5 -0.145161301
v 0 -0.5 -0.112903237
v 0 -0.467741936 -0.112903237
v 0 -0.435483873 -0.112903237
v 0 -0.403225809 -0.112903237
v 0 -0.370967746 -0.112903237
v 0 -0.338709682 -0.112903237
v 0 -0.306451619 -0.112903237
v 0 -0.274193555 -0.112903237
v 0 -0.241935492 -0.112903237
v 0 -0.209677428 -0.112903237
v 0 -0.177419364 -0.112903237
v 0 -0.145161301 -0.112903237
v 0 -0.112903237 -0.112903237
v 0 -0.0806451738 -0.112903237
v 0 -0.0483871102 -0.112903237
v 0 -0.0161290467 -0.112903237
v 0 0.0161290169 -0.112903237
v 0 0.0483870506 -0.112903237
v 0 0.080645144 -0.112903237
v 0 0.112903237 -0.112903237
v 0 0.145161271 -0.112903237
v 0 0.177419305 -0.112903237
v 0 0.209677398 -0.112903237
v 0 0.241935492 -0.112903237
v 0 0.274193525 -0.112903237
v 0 0.306451559 -0.112903237
v 0 0.338709652 -0.112903237
v 0 0.370967746 -0.112903237
v 0 0.40322578 -0.112903237
v 0 0.435483813 -0.112903237
v 0 0.467741907 -0.112903237
v 0 0.5 -0.112903237
v 0 -0.5 -0.0806451738
v 0 -0.467741936 -0.0806451738
v 0 -0.435483873 -0.0806451738
v 0 -0.403225809 -0.0806451738
v 0 -0.370967746 -0.0806451738
v 0 -0.338709682 -0.0806451738
v 0 -0.306451619 -0.0806451738
v 0 -0.274193555 -0.0806451738
v 0 -0.241935492 -0.0806451738
v 0 -0.209677428 -0.0806451738
v 0 -0.177419364 -0.0806451738
v 0 -0.145161301 -0.0806451738
v 0 -0.112903237 -0.0806451738
v 0 -0.0806451738 -0.0806451738
v 0 -0.0483871102 -0.0806451738
v 0 -0.0161290467 -0.0806451738
v 0 0.0161290169 -0.0806451738
v 0 0.0483870506 -0.0806451738
v 0 0.080645144 -0.0806451738
v 0 0.112903237 -0.0806451738
v 0 0.145161271 -0.0806451738
v 0 0.177419305 -0.0806451738
v 0 0.209677398 -0.0806451738
v 0 0.241935492 -0.0806451738
v 0 0.274193525 -0.0806451738
v 0 0.306451559 -0.0806451738
v 0 0.338709652 -0.0806451738
v 0 0.370967746 -0.0806451738
v 0 0.40322578 -0.0806451738
v 0 0.435483813 -0.0806451738
v 0 0.467741907 -0.0806451738
v 0 0.5 -0.0806451738
v 0 -0.5 -0.0483871102
v 0 -0.467741936 -0.0483871102
v 0 -0.435483873 -0.0483871102
v 0 -0.403225809 -0.0483871102
v 0 -0.370967746 -0.0483871102
v 0 -0.338709682 -0.0483871102
v 0 -0.306451619 -0.0483871102
v 0 -0.274193555 -0.0483871102
v 0 -0.241935492 -0.0483871102
v 0 -0.209677428 -0.0483871102
v 0 -0.177419364 -0.0483871102
v 0 -0.145161301 -0.0483871102
v 0 -0.112903237 -0.0483871102
v 0 -0.0806451738 -0.0483871102
v 0 -0.0483871102 -0.0483871102
v 0 -0.0161290467 -0.0483871102
v 0 0.0161290169 -0.0483871102
v 0 0.0483870506 -0.0483871102
v 0 0.080645144 -0.0483871102
v 0 0.112903237 -0.0483871102
v 0 0.145161271 -0.0483871102
v 0 0.177419305 -0.0483871102
v 0 0.209677398 -0.0483871102
v 0 0.241935492 -0.0483871102
v 0 0.274193525 -0.0483871102
v 0 0.306451559 -0.0483871102
v 0 0.338709652 -0.0483871102
v 0 0.370967746 -0.0483871102
v 0 0.40322578 -0.0483871102
v 0 0.435483813 -0.0483871102
v 0 0.467741907 -0.0483871102
v 0 0.5 -0.0483871102
v 0 -0.5 -0.0161290467
v 0 -0.467741936 -0.0161290467
v 0 -0.435483873 -0.0161290467
v 0 -0.403225809 -0.0161290467
v 0 -0.370967746 -0.0161290467
v 0 -0.338709682 -0.0161290467
v 0 -0.306451619 -0.0161290467
v 0 -0.274193555 -0.0161290467
v 0 -0.241935492 -0.0161290467
v 0 -0.209677428 -0.0161290467
v 0 -0.177419364 -0.0161290467
v 0 -0.145161301 -0.0161290467
v 0 -0.112903237 -0.0161290467
v 0 -0.0806451738 -0.0161290467
v 0 -0.0483871102 -0.0161290467
v 0 -0.0161290467 -0.0161290467
v 0 0.0161290169 -0.0161290467
v 0 0.0483870506 -0.0161290467
v 0 0.080645144 -0.0161290467
v 0 0.112903237 -0.0161290467
v 0 0.145161271 -0.0161290467
v 0 0.177419305 -0.0161290467
v 0 0.209677398 -0.0161290467
v 0 0.241935492 -0.0161290467
v 0 0.274193525 -0.0161290467
v 0 0.306451559 -0.0161290467
v 0 0.338709652 -0.0161290467
v 0 0.370967746 -0.0161290467
v 0 0.40322578 -0.0161290467
v 0 0.435483813 -0.0161290467
v 0 0.467741907 -0.0161290467
v 0 0.5 -0.0161290467
v 0 -0.5 0.0161290169
v 0 -0.467741936 0.0161290169
v 0 -0.435483873 0.0161290169
v 0 -0.403225809 0.0161290169
v 0 -0.370967746 0.0161290169
v 0 -0.338709682 0.0161290169
v 0 -0.306451619 0.0161290169
v 0 -0.274193555 0.0161290169
v 0 -0.241935492 0.0161290169
v 0 -0.209677428 0.0161290169
v 0 -0.177419364 0.0161290169
v 0 -0.145161301 0.0161290169
v 0 -0.112903237 0.0161290169
v 0 -0.0806451738 0.0161290169
v 0 -0.0483871102 0.0161290169
v 0 -0.0161290467 0.0161290169
v 0 0.0161290169 0.0161290169
v 0 0.0483870506 0.0161290169
v 0 0.080645144 0.0161290169
v 0 0.112903237 0.0161290169
v 0 0.145161271 0.0161290169
v 0 0.177419305 0.0161290169
v 0 0.209677398 0.0161290169
v 0 0.241935492 0.0161290169
v 0 0.274193525 0.0161290169
v 0 0.306451559 0.0161290169
v 0 0.338709652 0.0161290169
v 0 0.370967746 0.0161290169
v 0 0.40322578 0.0161290169
v 0 0.435483813 0.0161290169
v 0 0.467741907 0.0161290169
v 0 0.5 0.0161290169
v 0 -0.5 0.0483870506
v 0 -0.467741936 0.0483870506
v 0 -0.435483873 0.0483870506
v 0 -0.403225809 0.0483870506
v 0 -0.370967746 0.0483870506
v 0 -0.338709682 0.0483870506
v 0 -0.306451619 0.0483870506
v 0 -0.274193555 0.0483870506
v 0 -0.241935492 0.0483870506
v 0 -0.209677428 0.0483870506
v 0 -0.177419364 0.0483870506
v 0 -0.145161301 0.0483870506
v 0 -0.112903237 0.0483870506
v 0 -0.0806451738 0.0483870506
v 0 -0.0483871102 0.0483870506
v 0 -0.0161290467 0.0483870506
v 0 0.0161290169 0.0483870506
v 0 0.0483870506 0.0483870506
v 0 0.080645144 0.0483870506
v 0 0.112903237 0.0483870506
v 0 0.145161271 0.0483870506
v 0 0.177419305 0.0483870506
v 0 0.209677398 0.0483870506
v 0 0.241935492 0.0483870506
v 0 0.274193525 0.0483870506
v 0 0.306451559 0.0483870506
v 0 0.338709652 0.0483870506
v 0 0.370967746 0.0483870506
v 0 0.40322578 0.0483870506
v 0 0.435483813 0.0483870506
v 0 0.467741907 0.0483870506
v 0 0.5 0.0483870506
v 0 -0.5 0.080645144
v 0 -0.467741936 0.080645144
v 0 -0.435483873 0.080645144
v 0 -0.403225809 0.080645144
v 0 -0.370967746 0.080645144
v 0 -0.338709682 0.080645144
v 0 -0.306451619 0.080645144
v 0 -0.274193555 0.080645144
v 0 -0.241935492 0.080645144
v 0 -0.209677428 0.080645144
v 0 -0.177419364 0.080645144
v 0 -0.145161301 0.080645144
v 0 -0.112903237 0.080645144
v 0 -0.0806451738 0.080645144
v 0 -0.0483871102 0.080645144
v 0 -0.0161290467 0.080645144
v 0 0.0161290169 0.080645144
v 0 0.0483870506 0.080645144
v 0 0.080645144 0.080645144
v 0 0.112903237 0.080645144
v 0 0.145161271 0.080645144
v 0 0.177419305 0.080645144
v 0 0.209677398 0.080645144
v 0 0.241935492 0.080645144
v 0 0.274193525 0.080645144
v 0 0.306451559 0.080645144
v 0 0.338709652 0.080645144
v 0 0.370967746 0.080645144
v 0 0.40322578 0.080645144
v 0 0.435483813 0.080645144
v 0 0.467741907 0.080645144
v 0 0.5 0.080645144
v 0 -0.5 0.112903237
v 0 -0.467741936 0.112903237
v 0 -0.435483873 0.112903237
v 0 -0.403225809 0.112903237
v 0 -0.370967746 0.112903237
v 0 -0.338709682 0.112903237
v 0 -0.306451619 0.112903237
v 0 -0.274193555 0.112903237
v 0 -0.241935492 0.112903237
v 0 -0.209677428 0.112903237
v 0 -0.177419364 0.112903237
v 0 -0.145161301 0.112903237
v 0 -0.112903237 0.112903237
v 0 -0.0806451738 0.112903237
v 0 -0.0483871102 0.112903237
v 0 -0.0161290467 0.112903237
v 0 0.0161290169 0.112903237
v 0 0.0483870506 0.112903237
v 0 0.080645144 0.112903237
v 0 0.112903237 0.112903237
v 0 0.145161271 0.112903237
v 0 0.177419305 0.112903237
v 0 0.209677398 0.112903237
v 0 0.241935492 0.112903237
v 0 0.274193525 0.112903237
v 0 0.306451559 0.112903237
v 0 0.338709652 0.112903237
v 0 0.370967746 0.112903237
v 0 0.40322578 0.112903237
v 0 0.435483813 0.112903237
v 0 0.467741907 0.112903237
v 0 0.5 0.112903237
v 0 -0.5 0.145161271
v 0 -0.467741936 0.145161271
v 0 -0.435483873 0.145161271
v 0 -0.403225809 0.145161271
v 0 -0.370967746 0.145161271
v 0 -0.338709682 0.145161271
v 0 -0.306451619 0.145161271
v 0 -0.274193555 0.145161271
v 0 -0.241935492 0.145161271
v 0 -0.209677428 0.145161271
v 0 -0.177419364 0.145161271
v 0 -0.145161301 0.145161271
v 0 -0.112903237 0.145161271
v 0 -0.0806451738 0.145161271
v 0 -0.0483871102 0.145161271
v 0 -0.0161290467 0.145161271
v 0 0.0161290169 0.145161271
v 0 0.0483870506 0.145161271
v 0 0.080645144 0.145161271
v 0 0.112903237 0.145161271
v 0 0.145161271 0.145161271
v 0 0.177419305 0.145161271
v 0 0.209677398 0.145161271
v 0 0.241935492 0.145161271
v 0 0.274193525 0.145161271
v 0 0.306451559 0.145161271
v 0 0.338709652 0.145161271
v 0 0.370967746 0.145161271
v 0 0.40322578 0.145161271
v 0 0.435483813 0.145161271
v 0 0.467741907 0.145161271
v 0 0.5 0.145161271
v 0 -0.5 0.177419305
v 0 -0.467741936 0.177419305
v 0 -0.435483873 0.177419305
v 0 -0.403225809 0.177419305
v 0 -0.370967746 0.177419305
v 0 -0.338709682 0.177419305
v 0 -0.306451619 0.177419305
v 0 -0.274193555 0.177419305
v 0 -0.241935492 0.177419305
v 0 -0.209677428 0.177419305
v 0 -0.177419364 0.177419305
v 0 -0.145161301 0.177419305
v 0 -0.112903237 0.177419305
v 0 -0.0806451738 0.177419305
v 0 -0.0483871102 0.177419305
v 0 -0.0161290467 0.177419305
v 0 0.0161290169 0.177419305
v 0 0.0483870506 0.177419305
v 0 0.080645144 0.177419305
v 0 0.112903237 0.177419305
v 0 0.145161271 0.177419305
v 0 0.177419305 0.177419305
v 0 0.209677398 0.177419305
v 0 0.241935492 0.177419305
v 0 0.274193525 0.177419305
v 0 0.306451559 0.177419305
v 0 0.338709652 0.177419305
v 0 0.370967746 0.177419305
v 0 0.40322578 0.177419305
v 0 0.435483813 0.177419305
v 0 0.467741907 0.177419305
v 0 0.5 0.177419305
v 0 -0.5 0.209677398
v 0 -0.467741936 0.209677398
v 0 -0.435483873 0.209677398
v 0 -0.403225809 0.209677398
v 0 -0.370967746 0.209677398
v 0 -0.338709682 0.209677398
v 0 -0.306451619 0.209677398
v 0 -0.274193555 0.209677398
v 0 -0.241935492 0.209677398
v 0 -0.209677428 0.209677398
v 0 -0.177419364 0.209677398
v 0 -0.145161301 0.209677398
v 0 -0.112903237 0.209677398
v 0 -0.0806451738 0.209677398
v 0 -0.0483871102 0.209677398
v 0 -0.0161290467 0.209677398
v 0 0.0161290169 0.209677398
v 0 0.0483870506 0.209677398
v 0 0.080645144 0.209677398
v 0 0.112903237 0.209677398
v 0 0.145161271 0.209677398
v 0 0.177419305 0.209677398
v 0 0.209677398 0.209677398
v 0 0.241935492 0.209677398
v 0 0.274193525 0.209677398
v 0 0.306451559 0.209677398
v 0 0.338709652 0.209677398
v 0 0.370967746 0.209677398
v 0 0.40322578 0.209677398
v 0 0.435483813 0.209677398
v 0 0.467741907 0.209677398
v 0 0.5 0.209677398
v 0 -0.5 0.241935492
v 0 -0.467741936 0.241935492
v 0 -0.435483873 0.241935492
v 0 -0.403225809 0.241935492
v 0 -0.370967746 0.241935492
v 0 -0.338709682 0.241935492
v 0 -0.306451619 0.241935492
v 0 -0.274193555 0.241935492
v 0 -0.241935492 0.241935492
v 0 -0.209677428 0.241935492
v 0 -0.177419364 0.241935492
v 0 -0.145161301 0.241935492
v 0 -0.112903237 0.241935492
v 0 -0.0806451738 0.241935492
v 0 -0.0483871102 0.241935492
v 0 -0.0161290467 0.241935492
v 0 0.0161290169 0.241935492
v 0 0.0483870506 0.241935492
v 0 0.080645144 0.241935492
v 0 0.112903237 0.241935492
v 0 0.145161271 0.241935492
v 0 0.177419305 0.241935492
v 0 0.209677398 0.241935492
v 0 0.241935492 0.241935492
v 0 0.274193525 0.241935492
v 0 0.306451559 0.241935492
v 0 0.338709652 0.241935492
v 0 0.370967746 0.241935492
v 0 0.40322578 0.241935492
v 0 0.435483813 0.241935492
v 0 0.467741907 0.241935492
v 0 0.5 0.241935492
v 0 -0.5 0.274193525
v 0 -0.467741936 0.274193525
v 0 -0.435483873 0.274193525
v 0 -0.403225809 0.274193525
v 0 -0.370967746 0.274193525
v 0 -0.338709682 0.274193525
v 0 -0.306451619 0.274193525
v 0 -0.274193555 0.274193525
v 0 -0.241935492 0.274193525
v 0 -0.209677428 0.274193525
v 0 -0.177419364 0.274193525
v 0 -0.145161301 0.274193525
v 0 -0.112903237 0.274193525
v 0 -0.0806451738 0.274193525
v 0 -0.0483871102 0.274193525
v 0 -0.0161290467 0.274193525
v 0 0.0161290169 0.274193525
v 0 0.0483870506 0.274193525
v 0 0.080645144 0.274193525
v 0 0.112903237 0.274193525
v 0 0.145161271 0.274193525
v 0 0.177419305 0.274193525
v 0 0.209677398 0.274193525
v 0 0.241935492 0.274193525
v 0 0.274193525 0.274193525
v 0 0.306451559 0.274193525
v 0 0.338709652 0.274193525
v 0 0.370967746 0.274193525
v 0 0.40322578 0.274193525
v 0 0.435483813 0.274193525
v 0 0.467741907 0.274193525
v 0 0.5 0.274193525
v 0 -0.5 0.306451559
v 0 -0.467741936 0.306451559
v 0 -0.435483873 0.306451559
v 0 -0.403225809 0.306451559
v 0 -0.370967746 0.306451559
v 0 -0.338709682 0.306451559
v 0 -0.306451619 0.306451559
v 0 -0.274193555 0.306451559
v 0 -0.241935492 0.306451559
v 0 -0.209677428 0.306451559
v 0 -0.177419364 0.306451559
v 0 -0.145161301 0.306451559
v 0 -0.112903237 0.306451559
v 0 -0.0806451738 0.306451559
v 0 -0.0483871102 0.306451559
v 0 -0.0161290467 0.306451559
v 0 0.0161290169 0.306451559
v 0 0.0483870506 0.306451559
v 0 0.080645144 0.306451559
v 0 0.112903237 0.306451559
v 0 0.145161271 0.306451559
v 0 0.177419305 0.306451559
v 0 0.209677398 0.306451559
v 0 0.241935492 0.306451559
v 0 0.274193525 0.306451559
v 0 0.306451559 0.306451559
v 0 0.338709652 0.306451559
v 0 0.370967746 0.306451559
v 0 0.40322578 0.306451559
v 0 0.435483813 0.306451559
v 0 0.467741907 0.306451559
v 0 0.5 0.306451559
v 0 -0.5 0.338709652
v 0 -0.467741936 0.338709652
v 0 -0.435483873 0.338709652
v 0 -0.403225809 0.338709652
v 0 -0.370967746 0.338709652
v 0 -0.338709682 0.338709652
v 0 -0.306451619 0.338709652
v 0 -0.274193555 0.338709652
v 0 -0.241935492 0.338709652
v 0 -0.209677428 0.338709652
v 0 -0.177419364 0.338709652
v 0 -0.145161301 0.338709652
v 0 -0.112903237 0.338709652
v 0 -0.0806451738 0.338709652
v 0 -0.0483871102 0.338709652
v 0 -0.0161290467 0.338709652
v 0 0.0161290169 0.338709652
v 0 0.0483870506 0.338709652
v 0 0.080645144 0.338709652
v 0 0.112903237 0.338709652
v 0 0.145161271 0.338709652
v 0 0.177419305 0.338709652
v 0 0.209677398 0.338709652
v 0 0.241935492 0.338709652
v 0 0.274193525 0.338709652
v 0 0.306451559 0.338709652
v 0 0.338709652 0.338709652
v 0 0.370967746 0.338709652
v 0 0.40322578 0.338709652
v 0 0.435483813 0.338709652
v 0 0.467741907 0.338709652
v 0 0.5 0.338709652
v 0 -0.5 0.370967746
v 0 -0.467741936 0.370967746
v 0 -0.435483873 0.370967746
v 0 -0.403225809 0.370967746
v 0 -0.370967746 0.370967746
v 0 -0.338709682 0.370967746
v 0 -0.306451619 0.370967746
v 0 -0.274193555 0.370967746
v 0 -0.241935492 0.370967746
v 0 -0.209677428 0.370967746
v 0 -0.177419364 0.370967746
v 0 -0.145161301 0.370967746
v 0 -0.112903237 0.370967746
v 0 -0.0806451738 0.370967746
v 0 -0.0483871102 0.370967746
v 0 -0.0161290467 0.370967746
v 0 0.0161290169 0.370967746
v 0 0.0483870506 0.370967746
v 0 0.080645144 0.370967746
v 0 0.112903237 0.370967746
v 0 0.145161271 0.370967746
v 0 0.177419305 0.370967746
v 0 0.209677398 0.370967746
v 0 0.241935492 0.370967746
v 0 0.274193525 0.370967746
v 0 0.306451559 0.370967746
v 0 0.338709652 0.370967746
v 0 0.370967746 0.370967746
v 0 0.40322578 0.370967746
v 0 0.435483813 0.370967746
v 0 0.467741907 0.370967746
v 0 0.5 0.370967746
v 0 -0.5 0.40322578
v 0 -0.467741936 0.40322578
v 0 -0.435483873 0.40322578
v 0 -0.403225809 0.40322578
v 0 -0.370967746 0.40322578
v 0 -0.338709682 0.40322578
v 0 -0.306451619 0.40322578
v 0 -0.274193555 0.40322578
v 0 -0.241935492 0.40322578
v 0 -0.209677428 0.40322578
v 0 -0.177419364 0.40322578
v 0 -0.145161301 0.40322578
v 0 -0.112903237 0.40322578
v 0 -0.0806451738 0.40322578
v 0 -0.0483871102 0.40322578
v 0 -0.0161290467 0.40322578
v 0 0.0161290169 0.40322578
v 0 0.0483870506 0.40322578
v 0 0.080645144 0.40322578
v 0 0.112903237 0.40322578
v 0 0.145161271 0.40322578
v 0 0.177419305 0.40322578
v 0 0.209677398 0.40322578
v 0 0.241935492 0.40322578
v 0 0.274193525 0.40322578
v 0 0.306451559 0.40322578
v 0 0.338709652 0.40322578
v 0 0.370967746 0.40322578
v 0 0.40322578 0.40322578
v 0 0.435483813 0.40322578
v 0 0.467741907 0.40322578
v 0 0.5 0.40322578
v 0 -0.5 0.435483813
v 0 -0.467741936 0.435483813
v 0 -0.435483873 0.435483813
v 0 -0.403225809 0.435483813
v 0 -0.370967746 0.435483813
v 0 -0.338709682 0.435483813
v 0 -0.306451619 0.435483813
v 0 -0.274193555 0.435483813
v 0 -0.241935492 0.435483813
v 0 -0.209677428 0.435483813
v 0 -0.177419364 0.435483813
v 0 -0.145161301 0.435483813
v 0 -0.112903237 0.435483813
v 0 -0.0806451738 0.435483813
v 0 -0.0483871102 0.435483813
v 0 -0.0161290467 0.435483813
v 0 0.0161290169 0.435483813
v 0 0.0483870506 0.435483813
v 0 0.080645144 0.435483813
v 0 0.112903237 0.435483813
v 0 0.145161271 0.435483813
v 0 0.177419305 0.435483813
v 0 0.209677398 0.435483813
v 0 0.241935492 0.435483813
v 0 0.274193525 0.435483813
v 0 0.306451559 0.435483813
v 0 0.338709652 0.435483813
v 0 0.370967746 0.435483813
v 0 0.40322578 0.435483813
v 0 0.435483813 0.435483813
v 0 0.467741907 0.435483813
v 0 0.5 0.435483813
v 0 -0.5 0.467741907
v 0 -0.467741936 0.467741907
v 0 -0.435483873 0.467741907
v 0 -0.403225809 0.467741907
v 0 -0.370967746 0.467741907
v 0 -0.338709682 0.467741907
v 0 -0.306451619 0.467741907
v 0 -0.274193555 0.467741907
v 0 -0.241935492 0.467741907
v 0 -0.209677428 0.467741907
v 0 -0.177419364 0.467741907
v 0 -0.145161301 0.467741907
v 0 -0.112903237 0.467741907
v 0 -0.0806451738 0.467741907
v 0 -0.0483871102 0.467741907
v 0 -0.0161290467 0.467741907
v 0 0.0161290169 0.467741907
v 0 0.0483870506 0.467741907
v 0 0.080645144 0.467741907
v 0 0.112903237 0.467741907
v 0 0.145161271 0.467741907
v 0 0.177419305 0.467741907
v 0 0.209677398 0.467741907
v 0 0.241935492 0.467741907
v 0 0.274193525 0.467741907
v 0 0.306451559 0.467741907
v 0 0.338709652 0.467741907
v 0 0.370967746 0.467741907
v 0 0.40322578 0.467741907
v 0 0.435483813 0.467741907
v 0 0.467741907 0.467741907
v 0 0.5 0.467741907
v 0 -0.5 0.5
v 0 -0.467741936 0.5
v 0 -0.435483873 0.5
v 0 -0.403225809 0.5
v 0 -0.370967746 0.5
v 0 -0.338709682 0.5
v 0 -0.306451619 0.5
v 0 -0.274193555 0.5
v 0 -0.241935492 0.5
v 0 -0.209677428 0.5
v 0 -0.177419364 0.5
v 0 -0.145161301 0.5
v 0 -0.112903237 0.5
v 0 -0.0806451738 0.5
v 0 -0.0483871102 0.5
v 0 -0.0161290467 0.5
v 0 0.0161290169 0.5
v 0 0.0483870506 0.5
v 0 0.080645144 0.5
v 0 0.112903237 0.5
v 0 0.145161271 0.5
v 0 0.177419305 0.5
v 0 0.209677398 0.5
v 0 0.241935492 0.5
v 0 0.274193525 0.5
v 0 0.306451559 0.5
v 0 0.338709652 0.5
v 0 0.370967746 0.5
v 0 0.40322578 0.5
v 0 0.435483813 0.5
v 0 0.467741907 0.5
v 0 0.5 0.5
g 
f 1 34 2
f 1 33 34
f 2 35 3
f 2 34 35
f 3 36 4
f 3 35 36
f 4 37 5
f 4 36 37
f 5 38 6
f 5 37 38
f 6 39 7
f 6 38 39
f 7 40 8
f 7 39 40
f 8 41 9
f 8 40 41
f 9 42 10
f 9 41 42
f 10 43 11
f 10 42 43
f 11 44 12
f 11 43 44
f 12 45 13
f 12 44 45
f 13 46 14
f 13 45 46
f 14 47 15
f 14 46 47
f 15 48 16
f 15 47 48
f 16 49 17
f 16 48 49
f 17 50 18
f 17 49 50
f 18 51 19
f 18 50 51
f 19 52 20
f 19 51 52
f 20 53 21
f 20 52 53
f 21 54 22
f 21 53 54
f 22 55 23
f 22 54 55
f 23 56 24
f 23 55 56
f 24 57 25
f 24 56 57
f 25 58 26
f 25 57 58
f 26 59 27
f 26 58 59
f 27 60 28
f 27 59 60
f 28 61 29
f 28 60 61
f 29 62 30
f 29 61 62
f 30 63 31
f 30 62 63
f 31 64 32
f 31 63 64
f 33 66 34
f 33 65 66
f 34 67 35
f 34 66 67
f 35 68 36
f 35 67 68
f 36 69 37
f 36 68 69
f 37 70 38
f 37 69 70
f 38 71 39
f 38 70 71
f 39 72 40
f 39 71 72
f 40 73 41
f 40 72 73
f 41 74 42
f 41 73 74
f 42 75 43
f 42 74 75
f 43 76 44
f 43 75 76
f 44 77 45
f 44 76 77
f 45 78 46
f 45 77 78
f 46 79 47
f 46 78 79
f 47 80 48
f 47 79 80
f 48 81 49
f 48 80 81
f 49 82 50
f 49 81 82
f 50 83 51
f 50 82 83
f 51 84 52
f 51 83 84
f 52 85 53
f 52 84 85
f 53 86 54
f 53 85 86
f 54 87 55
f 54 86 87
f 55 88 56
f 55 87 88
f 56 89 57
f 56 88 89
f 57 90 58
f 57 89 90
f 58 91 59
f 58 90 91
f 59 92 60
f 59 91 92
f 60 93 61
f 60 92 93
f 61 94 62
f 61 93 94
f 62 95 63
f 62 94 95
f 63 96 64
f 63 95 96
f 65 98 66
f 65 97 98
f 66 99 67
f 66 98 99
f 67 100 68
f 67 99 100
f 68 101 69
f 68 100 101
f 69 102 70
f 69 101 102
f 70 103 71
f 70 102 103
f 71 104 72
f 71 103 104
f 72 105 73
f 72 104 105
f 73 106 74
f 73 105 106
f 74 107 75
f 74 106 107
f 75 108 76
f 75 107 108
f 76 109 77
f 76 108 109
f 77 110 78
f 77 109 110
f 78 111 79
f 78 110 111
f 79 112 80
f 79 111 112
f 80 113 81
f 80 112 113
f 81 114 82
f 81 113 114
f 82 115 83
f 82 114 115
f 83 116 84
f 83 115 116
f 84 117 85
f 84 116 117
f 85 118 86
f 85 117 118
f 86 119 87
f 86 118 119
f 87 120 88
f 87 119 120
f 88 121 89
f 88 120 121
f 89 122 90
f 89 121 122
f 90 123 91
f 90 122 123
f 91 124 92
f 91 123 124
f 92 125 93
f 92 124 125
f 93 126 94
f 93 125 126
f 94 127 95
f 94 126 127
f 95 128 96
f 95 127 128
f 97 130 98
f 97 129 130
f 98 131 99
f 98 130 131
f 99 132 100
f 99 131 132
f 100 133 101
f 100 132 133
f 101 134 102
f 101 133 134
f 102 135 103
f 102 134 135
f 103 136 104
f 103 135 136
f 104 137 105
f 104 136 137
f 105 138 106
f 105 137 138
f 106 139 107
f 106 138 139
f 107 140 108
f 107 139 140
f 108 141 109
f 108 140 141
f 109 142 110
f 109 141 142
f 110 143 111
f 110 142 143
f 111 144 112
f 111 143 144
f 112 145 113
f 112 144 145
f 113 146 114
f 113 145 146
f 114 147 115
f 114 146 147
f 115 148 116
f 115 147 148
f 116 149 117
f 116 148 149
f 117 150 118
f 117 149 150
f 118 151 119
f 118 150 151
f 119 152 120
f 119 151 152
f 120 153 121
f 120 152 153
f 121 154 122
f 121 153 154
f 122 155 123
f 122 154 155
f 123 156 124
f 123 155 156
f 124 157 125
f 124 156 157
f 125 158 126
f 125 157 158
f 126 159 127
f 126 158 159
f 127 160 128
f 127 159 160
f 129 162 130
f 129 161 162
f 130 163 131
f 130 162 163
f 131 164 132
f 131 163 164
f 132 165 133
f 132 164 165
f 133 166 134
f 133 165 166
f 134 167 135
f 134 166 167
f 135 168 136
f 135 167 168
f 136 169 137
f 136 168 169
f 137 170 138
f 137 169 170
f 138 171 139
f 138 170 171
f 139 172 140
f 139 171 172
f 140 173 141
f 140 172 173
f 141 174 142
f 141 173 174
f 142 175 143
f 142 174 175
f 143 176 144
f 143 175 176
f 144 177 145
f 144 176 177
f 145 178 146
f 145 177 178
f 146 179 147
f 146 178 179
f 147 180 148
f 147 179 180
f 148 181 149
f 148 180 181
f 149 182 150
f 149 181 182
f 150 183 151
f 150 182 183
f 151 184 152
f 151 183 184
f 152 185 153
f 152 184 185
f 153 186 154
f 153 185 186
f 154 187 155
f 154 186 187
f 155 188 156
f 155 187 188
f 156 189 157
f 156 188 189
f 157 190 158
f 157 189 190
f 158 191 159
f 158 190 191
f 159 192 160
f 159 191 192
f 161 194 162
f 161 193 194
f 162 195 163
f 162 194 195
f 163 196 164
f 163 195 196
f 164 197 165
f 164 196 197
f 165 198 166
f 165 197 198
f 166 199 167
f 166 198 199
f 167 200 168
f 167 199 200
f 168 201 169
f 168 200 201
f 169 202 170
f 169 201 202
f 170 203 171
f 170 202 203
f 171 204 172
f 171 203 204
f 172 205 173
f 172 204 205
f 173 206 174
f 173 205 206
f 174 207 175
f 174 206 207
f 175 208 176
f 175 207 208
f 176 209 177
f 176 208 209
f 177 210 178
f 177 209 210
f 178 211 179
f 178 210 211
f 179 212 180
f 179 211 212
f 180 213 181
f 180 212 213
f 181 214 182
f 181 213 214
f 182 215 183
f 182 214 215
f 183 216 184
f 183 215 216
f 184 217 185
f 184 216 217
f 185 218 186
f 185 217 218
f 186 219 187
f 186 218 219
f 187 220 188
f 187 219 220
f 188 221 189
f 188 220 221
f 189 222 190
f 189 221 222
f 190 223 191
f 190 222 223
f 191 224 192
f 191 223 224
f 193 226 194
f 193 225 226
f 194 227 195
f 194 226 227
f 195 228 196
f 195 227 228
f 196 229 197
f 196 228 229
f 197 230 198
f 197 229 230
f 198 231 199
f 198 230 231
f 199 232 200
f 199 231 232
f 200 233 201
f 200 232 233
f 201 234 202
f 201 233 234
f 202 235 203
f 202 234 235
f 203 236 204
f 203 235 236
f 204 237 205
f 204 236 237
f 205 238 206
f 205 237 238
f 206 239 207
f 206 238 239
f 207 240 208
f 207 239 240
f 208 241 209
f 208 240 241
f 209 242 210
f 209 241 242
f 210 243 211
f 210 242 243
f 211 244 212
f 211 243 244
f 212 245 213
f 212 244 245
f 213 246 214
f 213 245 246
f 214 247 215
f 214 246 247
f 215 248 216
f 215 247 248
f 216 249 217
f 216 248 249
f 217 250 218
f 217 249 250
f 218 251 219
f 218 250 251
f 219 252 220
f 219 251 252
f 220 253 221
f 220 252 253
f 221 254 222
f 221 253 254
f 222 255 223
f 222 254 255
f 223 256 224
f 223 255 256
f 225 258 226
f 225 257 258
f 226 259 227
f 226 258 259
f 227 260 228
f 227 259 260
f 228 261 229
f 228 260 261
f 229 262 230
f 229 261 262
f 230 263 231
f 230 262 263
f 231 264 232
f 231 263 264
f 232 265 233
f 232 264 265
f 233 266 234
f 233 265 266
f 234 267 235
f 234 266 267
f 235 268 236
f 235 267 268
f 236 269 237
f 236 268 269
f 237 270 238
f 237 269 270
f 238 271 239
f 238 270 271
f 239 272 240
f 239 271 272
f 240 273 241
f 240 272 273
f 241 274 242
f 241 273 274
f 242 275 243
f 242 274 275
f 243 276 244
f 243 275 276
f 244 277 245
f 244 276 277
f 245 278 246
f 245 277 278
f 246 279 247
f 246 278 279
f 247 280 248
f 247 279 280
f 248 281 249
f 248 280 281
f 249 282 250
f 249 281 282
f 250 283 251
f 250 282 283
f 251 284 252
f 251 283 284
f 252 285 253
f 252 284 285
f 253 286 254
f 253 285 286
f 254 287 255
f 254 286 287
f 255 288 256
f 255 287 288
f 257 290 258
f 257 289 290
f 258 291 259
f 258 290 291
f 259 292 260
f 259 291 292
f 260 293 261
f 260 292 293
f 261 294 262
f 261 293 294
f 262 295 263
f 262 294 295
f 263 296 264
f 263 295 296
f 264 297 265
f 264 296 297
f 265 298 266
f 265 297 298
f 266 299 267
f 266 298 299
f 267 300 268
f 267 299 300
f 268 301 269
f 268 300 301
f 269 302 270
f 269 301 302
f 270 303 271
f 270 302 303
f 271 304 272
f 271 303 304
f 272 305 273
f 272 304 305
f 273 306 274
f 273 305 306
f 274 307 275
f 274 306 307
f 275 308 276
f 275 307 308
f 276 309 277
f 276 308 309
f 277 310 278
f 277 309 310
f 278 311 279
f 278 310 311
f 279 312 280
f 279 311 312
f 280 313 281
f 280 312 313
f 281 314 282
f 281 313 314
f 282 315 283
f 282 314 315
f 283 316 284
f 283 315 316
f 284 317 285
f 284 316 317
f 285 318 286
f 285 317 318
f 286 319 287
f 286 318 319
f 287 320 288
f 287 319 320
f 289 322 290
f 289 321 322
f 290 323 291
f 290 322 323
f 291 324 292
f 291 323 324
f 292 325 293
f 292 324 325
f 293 326 294
f 293 325 326
f 294 327 295
f 294 326 327
f 295 328 296
f 295 327 328
f 296 329 297
f 296 328 329
f 297 330 298
f 297 329 330
f 298 331 299
f 298 330 331
f 299 332 300
f 299 331 332
f 300 333 301
f 300 332 333
f 301 334 302
f 301 333 334
f 302 335 303
f 302 334 335
f 303 336 304
f 303 335 336
f 304 337 305
f 304 336 337
f 305 338 306
f 305 337 338
f 306 339 307
f 306 338 339
f 307 340 308
f 307 339 340
f 308 341 309
f 308 340 341
f 309 342 310
f 309 341 342
f 310 343 311
f 310 342 343
f 311 344 312
f 311 343 344
f 312 345 313
f 312 344 345
f 313 346 314
f 313 345 346
f 314 347 315
f 314 346 347
f 315 348 316
f 315 347 348
f 316 349 317
f 316 348 349
f 317 350 318
f 317 349 350
f 318 351 319
f 318 350 351
f 319 352 320
f 319 351 352
f 321 354 322
f 321 353 354
f 322 355 323
f 322 354 355
f 323 356 324
f 323 355 356
f 324 357 325
f 324 356 357
f 325 358 326
f 325 357 358
f 326 359 327
f 326 358 359
f 327 360 328
f 327 359 360
f 328 361 329
f 328 360 361
f 329 362 330
f 329 361 362
f 330 363 331
f 330 362 363
f 331 364 332
f 331 363 364
f 332 365 333
f 332 364 365
f 333 366 334
f 333 365 366
f 334 367 335
f 334 366 367
f 335 368 336
f 335 367 368
f 336 369 337
f 336 368 369
f 337 370 338
f 337 369 370
f 338 371 339
f 338 370 371
f 339 372 340
f 339 371 372
f 340 373 341
f 340 372 373
f 341 374 342
f 341 373 374
f 342 375 343
f 342 374 375
f 343 376 344
f 343 375 376
f 344 377 345
f 344 376 377
f 345 378 346
f 345 377 378
f 346 379 347
f 346 378 379
f 347 380 348
f 347 379 380
f 348 381 349
f 348 380 381
f 349 382 350
f 349 381 382
f 350 383 351
f 350 382 383
f 351 384 352
f 351 383 384
f 353 386 354
f 353 385 386
f 354 387 355
f 354 386 387
f 355 388 356
f 355 387 388
f 356 389 357
f 356 388 389
f 357 390 358
f 357 389 390
f 358 391 359
f 358 390 391
f 359 392 360
f 359 391 392
f 360 393 361
f 360 392 393
f 361 394 362
f 361 393 394
f 362 395 363
f 362 394 395
f 363 396 364
f 363 395 396
f 364 397 365
f 364 396 397
f 365 398 366
f 365 397 398
f 366 399 367
f 366 398 399
f 367 400 368
f 367 399 400
f 368 401 369
f 368 400 401
f 369 402 370
f 369 401 402
f 370 403 371
f 370 402 403
f 371 404 372
f 371 403 404
f 372 405 373
f 372 404 405
f 373 406 374
f 373 405 406
f 374 407 375
f 374 406 407
f 375 408 376
f 375 407 408
f 376 409 377
f 376 408 409
f 377 410 378
f 377 409 410
f 378 411 379
f 378 410 411
f 379 412 380
f 379 411 412
f 380 413 381
f 380 412 413
f 381 414 382
f 381 413 414
f 382 415 383
f 382 414 415
f 383 416 384
f 383 415 416
f 385 418 386
f 385 417 418
f 386 419 387
f 386 418 419
f 387 420 388
f 387 419 420
f 388 421 389
f 388 420 421
f 389 422 390
f 389 421 422
f 390 423 391
f 390 422 423
f 391 424 392
f 391 423 424
f 392 425 393
f 392 424 425
f 393 426 394
f 393 425 426
f 394 427 395
f 394 426 427
f 395 428 396
f 395 427 428
f 396 429 397
f 396 428 429
f 397 430 398
f 397 429 430
f 398 431 399
f 398 430 431
f 399 432 400
f 399 431 432
f 400 433 401
f 400 432 433
f 401 434 402
f 401 433 434
f 402 435 403
f 402 434 435
f 403 436 404
f 403 435 436
f 404 437 405
f 404 436 437
f 405 438 406
f 405 437 438
f 406 439 407
f 406 438 439
f 407 440 408
f 407 439 440
f 408 441 409
f 408 440 441
f 409 442 410
f 409 441 442
f 410 443 411
f 410 442 443
f 411 444 412
f 411 443 444
f 412 445 413
f 412 444 445
f 413 446 414
f 413 445 446
f 414 447 415
f 414 446 447
f 415 448 416
f 415 447 448
f 417 450 418
f 417 449 450
f 418 451 419
f 418 450 451
f 419 452 420
f 419 451 452
f 420 453 421
f 420 452 453
f 421 454 422
f 421 453 454
f 422 455 423
f 422 454 455
f 423 456 424
f 423 455 456
f 424 457 425
f 424 456 457
f 425 458 426
f 425 457 458
f 426 459 427
f 426 458 459
f 427 460 428
f 427 459 460
f 428 461 429
f 428 460 461
f 429 462 430
f 429 461 462
f 430 463 431
f 430 462 463
f 431 464 432
f 431 463 464
f 432 465 433
f 432 464 465
f 433 466 434
f 433 465 466
f 434 467 435
f 434 466 467
f 435 468 436
f 435 467 468
f 436 469 437
f 436 468 469
f 437 470 438
f 437 469 470
f 438 471 439
f 438 470 471
f 439 472 440
f 439 471 472
f 440 473 441
f 440 472 473
f 441 474 442
f 441 473 474
f 442 475 443
f 442 474 475
f 443 476 444
f 443 475 476
f 444 477 445
f 444 476 477
f 445 478 446
f 445 477 478
f 446 479 447
f 446 478 479
f 447 480 448
f 447 479 480
f 449 482 450
f 449 481 482
f 450 483 451
f 450 482 483
f 451 484 452
f 451 483 484
f 452 485 453
f 452 484 485
f 453 486 454
f 453 485 486
f 454 487 455
f 454 486 487
f 455 488 456
f 455 487 488
f 456 489 457
f 456 488 489
f 457 490 458
f 457 489 490
f 458 491 459
f 458 490 491
f 459 492 460
f 459 491 492
f 460 493 461
f 460 492 493
f 461 494 462
f 461 493 494
f 462 495 463
f 462 494 495
f 463 496 464
f 463 495 496
f 464 497 465
f 464 496 497
f 465 498 466
f 465 497 498
f 466 499 467
f 466 498 499
f 467 500 468
f 467 499 500
f 468 501 469
f 468 500 501
f 469 502 470
f 469 501 502
f 470 503 471
f 470 502 503
f 471 504 472
f 471 503 504
f 472 505 473
f 472 504 505
f 473 506 474
f 473 505 506
f 474 507 475
f 474 506 507
f 475 508 476
f 475 507 508
f 476 509 477
f 476 508 509
f 477 510 478
f 477 509 510
f 478 511 479
f 478 510 511
f 479 512 480
f 479 511 512
f 481 514 482
f 481 513 514
f 482 515 483
f 482 514 515
f 483 516 484
f 483 515 516
f 484 517 485
f 484 516 517
f 485 518 486
f 485 517 518
f 486 519 487
f 486 518 519
f 487 520 488
f 487 519 520
f 488 521 489
f 488 520 521
f 489 522 490
f 489 521 522
f 490 523 491
f 490 522 523
f 491 524 492
f 491 523 524
f 492 525 493
f 492 524 525
f 493 526 494
f 493 525 526
f 494 527 495
f 494 526 527
f 495 528 496
f 495 527 528
f 496 529 497
f 496 528 529
f 497 530 498
f 497 529 530
f 498 531 499
f 498 530 531
f 499 532 500
f 499 531 532
f 500 533 501
f 500 532 533
f 501 534 502
f 501 533 534
f 502 535 503
f 502 534 535
f 503 536 504
f 503 535 536
f 504 537 505
f 504 536 537
f 505 538 506
f 505 537 538
f 506 539 507
f 506 538 539
f 507 540 508
f 507 539 540
f 508 541 509
f 508 540 541
f 509 542 510
f 509 541 542
f 510 543 511
f 510 542 543
f 511 544 512
f 511 543 544
f 513 546 514
f 513 545 546
f 514 547 515
f 514 546 547
f 515 548 516
f 515 547 548
f 516 549 517
f 516 548 549
f 517 550 518
f 517 549 550
f 518 551 519
f 518 550 551
f 519 552 520
f 519 551 552
f 520 553 521
f 520 552 553
f 521 554 522
f 521 553 554
f 522 555 523
f 522 554 555
f 523 556 524
f 523 555 556
f 524 557 525
f 524 556 557
f 525 558 526
f 525 557 558
f 526 559 527
f 526 558 559
f 527 560 528
f 527 559 560
f 528 561 529
f 528 560 561
f 529 562 530
f 529 561 562
f 530 563 531
f 530 562 563
f 531 564 532
f 531 563 564
f 532 565 533
f 532 564 565
f 533 566 534
f 533 565 566
f 534 567 535
f 534 566 567
f 535 568 536
f 535 567 568
f 536 569 537
f 536 568 569
f 537 570 538
f 537 569 570
f 538 571 539
f 538 570 571
f 539 572 540
f 539 571 572
f 540 573 541
f 540 572 573
f 541 574 542
f 541 573 574
f 542 575 543
f 542 574 575
f 543 576 544
f 543 575 576
f 545 578 546
f 545 577 578
f 546 579 547
f 546 578 579
f 547 580 548
f 547 579 580
f 548 581 549
f 548 580 581
f 549 582 550
f 549 581 582
f 550 583 551
f 550 582 583
f 551 584 552
f 551 583 584
f 552 585 553
f 552 584 585
f 553 586 554
f 553 585 586
f 554 587 555
f 554 586 587
f 555 588 556
f 555 587 588
f 556 589 557
f 556 588 589
f 557 590 558
f 557 589 590
f 558 591 559
f 558 590 591
f 559 592 560
f 559 591 592
f 560 593 561
f 560 592 593
f 561 594 562
f 561 593 594
f 562 595 563
f 562 594 595
f 563 596 564
f 563 595 596
f 564 597 565
f 564 596 597
f 565 598 566
f 565 597 598
f 566 599 567
f 566 598 599
f 567 600 568
f 567 599 600
f 568 601 569
f 568 600 601
f 569 602 570
f 569 601 602
f 570 603 571
f 570 602 603
f 571 604 572
f 571 603 604
f 572 605 573
f 572 604 605
f 573 606 574
f 573 605 606
f 574 607 575
f 574 606 607
f 575 608 576
f 575 607 608
f 577 610 578
f 577 609 610
f 578 611 579
f 578 610 611
f 579 612 580
f 579 611 612
f 580 613 581
f 580 612 613
f 581 614 582
f 581 613 614
f 582 615 583
f 582 614 615
f 583 616 584
f 583 615 616
f 584 617 585
f 584 616 617
f 585 618 586
f 585 617 618
f 586 619 587
f 586 618 619
f 587 620 588
f 587 619 620
f 588 621 589
f 588 620 621
f 589 622 590
f 589 621 622
f 590 623 591
f 590 622 623
f 591 624 592
f 591 623 624
f 592 625 593
f 592 624 625
f 593 626 594
f 593 625 626
f 594 627 595
f 594 626 627
f 595 628 596
f 595 627 628
f 596 629 597
f 596 628 629
f 597 630 598
f 597 629 630
f 598 631 599
f 598 630 631
f 599 632 600
f 599 631 632
f 600 633 601
f 600 632 633
f 601 634 602
f 601 633 634
f 602 635 603
f 602 634 635
f 603 636 604
f 603 635 636
f 604 637 605
f 604 636 637
f 605 638 606
f 605 637 638
f 606 639 607
f 606 638 639
f 607 640 608
f 607 639 640
f 609 642 610
f 609 641 642
f 610 643 611
f 610 642 643
f 611 644 612
f 611 643 644
f 612 645 613
f 612 644 645
f 613 646 614
f 613 645 646
f 614 647 615
f 614 646 647
f 615 648 616
f 615 647 648
f 616 649 617
f 616 648 649
f 617 650 618
f 617 649 650
f 618 651 619
f 618 650 651
f 619 652 620
f 619 651 652
f 620 653 621
f 620 652 653
f 621 654 622
f 621 653 654
f 622 655 623
f 622 654 655
f 623 656 624
f 623 655 656
f 624 657 625
f 624 656 657
f 625 658 626
f 625 657 658
f 626 659 627
f 626 658 659
f 627 660 628
f 627 659 660
f 628 661 629
f 628 660 661
f 629 662 630
f 629 661 662
f 630 663 631
f 630 662 663
f 631 664 632
f 631 663 664
f 632 665 633
f 632 664 665
f 633 666 634
f 633 665 666
f 634 667 635
f 634 666 667
f 635 668 636
f 635 667 668
f 636 669 637
f 636 668 669
f 637 670 638
f 637 669 670
f 638 671 639
f 638 670 671
f 639 672 640
f 639 671 672
f 641 674 642
f 641 673 674
f 642 675 643
f 642 674 675
f 643 676 644
f 643 675 676
f 644 677 645
f 644 676 677
f 645 678 646
f 645 677 678
f 646 679 647
f 646 678 679
f 647 680 648
f 647 679 680
f 648 681 649
f 648 680 681
f 649 682 650
f 649 681 682
f 650 683 651
f 650 682 683
f 651 684 652
f 651 683 684
f 652 685 653
f 652 684 685
f 653 686 654
f 653 685 686
f 654 687 655
f 654 686 687
f 655 688 656
f 655 687 688
f 656 689 657
f 656 688 689
f 657 690 658
f 657 689 690
f 658 691 659
f 658 690 691
f 659 692 660
f 659 691 692
f 660 693 661
f 660 692 693
f 661 694 662
f 661 693 694
f 662 695 663
f 662 694 695
f 663 696 664
f 663 695 696
f 664 697 665
f 664 696 697
f 665 698 666
f 665 697 698
f 666 699 667
f 666 698 699
f 667 700 668
f 667 699 700
f 668 701 669
f 668 700 701
f 669 702 670
f 669 701 702
f 670 703 671
f 670 702 703
f 671 704 672
f 671 703 704
f 673 706 674
f 673 705 706
f 674 707 675
f 674 706 707
f 675 708 676
f 675 707 708
f 676 709 677
f 676 708 709
f 677 710 678
f 677 709 710
f 678 711 679
f 678 710 711
f 679 712 680
f 679 711 712
f 680 713 681
f 680 712 713
f 681 714 682
f 681 713 714
f 682 715 683
f 682 714 715
f 683 716 684
f 683 715 716
f 684 717 685
f 684 716 717
f 685 718 686
f 685 717 718
f 686 719 687
f 686 718 719
f 687 720 688
f 687 719 720
f 688 721 689
f 688 720 721
f 689 722 690
f 689 721 722
f 690 723 691
f 690 722 723
f 691 724 692
f 691 723 724
f 692 725 693
f 692 724 725
f 693 726 694
f 693 725 726
f 694 727 695
f 694 726 727
f 695 728 696
f 695 727 728
f 696 729 697
f 696 728 729
f 697 730 698
f 697 729 730
f 698 731 699
f 698 730 731
f 699 732 700
f 699 731 732
f 700 733 701
f 700 732 733
f 701 734 702
f 701 733 734
f 702 735 703
f 702 734 735
f 703 736 704
f 703 735 736
f 705 738 706
f 705 737 738
f 706 739 707
f 706 738 739
f 707 740 708
f 707 739 740
f 708 741 709
f 708 740 741
f 709 742 710
f 709 741 742
f 710 743 711
f 710 742 743
f 711 744 712
f 711 743 744
f 712 745 713
f 712 744 745
f 713 746 714
f 713 745 746
f 714 747 715
f 714 746 747
f 715 748 716
f 715 747 748
f 716 749 717
f 716 748 749
f 717 750 718
f 717 749 750
f 718 751 719
f 718 750 751
f 719 752 720
f 719 751 752
f 720 753 721
f 720 752 753
f 721 754 722
f 721 753 754
f 722 755 723
f 722 754 755
f 723 756 724
f 723 755 756
f 724 757 725
f 724 756 757
f 725 758 726
f 725 757 758
f 726 759 727
f 726 758 759
f 727 760 728
f 727 759 760
f 728 761 729
f 728 760 761
f 729 762 730
f 729 761 762
f 730 763 731
f 730 762 763
f 731 764 732
f 731 763 764
f 732 765 733
f 732 764 765
f 733 766 734
f 733 765 766
f 734 767 735
f 734 766 767
f 735 768 736
f 735 767 768
f 737 770 738
f 737 769 770
f 738 771 739
f 738 770 771
f 739 772 740
f 739 771 772
f 740 773 741
f 740 772 773
f 741 774 742
f 741 773 774
f 742 775 743
f 742 774 775
f 743 776 744
f 743 775 776
f 744 777 745
f 744 776 777
f 745 778 746
f 745 777 778
f 746 779 747
f 746 778 779
f 747 780 748
f 747 779 780
f 748 781 749
f 748 780 781
f 749 782 750
f 749 781 782
f 750 783 751
f 750 782 783
f 751 784 752
f 751 783 784
f 752 785 753
f 752 784 785
f 753 786 754
f 753 785 786
f 754 787 755
f 754 786 787
f 755 788 756
f 755 787 788
f 756 789 757
f 756 788 789
f 757 790 758
f 757 789 790
f 758 791 759
f 758 790 791
f 759 792 760
f 759 791 792
f 760 793 761
f 760 792 793
f 761 794 762
f 761 793 794
f 762 795 763
f 762 794 795
f 763 796 764
f 763 795 796
f 764 797 765
f 764 796 797
f 765 798 766
f 765 797 798
f 766 799 767
f 766 798 799
f 767 800 768
f 767 799 800
f 769 802 770
f 769 801 802
f 770 803 771
f 770 802 803
f 771 804 772
f 771 803 804
f 772 805 773
f 772 804 805
f 773 806 774
f 773 805 806
f 774 807 775
f 774 806 807
f 775 808 776
f 775 807 808
f 776 809 777
f 776 808 809
f 777 810 778
f 777 809 810
f 778 811 779
f 778 810 811
f 779 812 780
f 779 811 812
f 780 813 781
f 780 812 813
f 781 814 782
f 781 813 814
f 782 815 783
f 782 814 815
f 783 816 784
f 783 815 816
f 784 817 785
f 784 816 817
f 785 818 786
f 785 817 818
f 786 819 787
f 786 818 819
f 787 820 788
f 787 819 820
f 788 821 789
f 788 820 821
f 789 822 790
f 789 821 822
f 790 823 791
f 790 822 823
f 791 824 792
f 791 823 824
f 792 825 793
f 792 824 825
f 793 826 794
f 793 825 826
f 794 827 795
f 794 826 827
f 795 828 796
f 795 827 828
f 796 829 797
f 796 828 829
f 797 830 798
f 797 829 830
f 798 831 799
f 798 830 831
f 799 832 800
f 799 831 832
f 801 834 802
f 801 833 834
f 802 835 803
f 802 834 835
f 803 836 804
f 803 835 836
f 804 837 805
f 804 836 837
f 805 838 806
f 805 837 838
f 806 839 807
f 806 838 839
f 807 840 808
f 807 839 840
f 808 841 809
f 808 840 841
f 809 842 810
f 809 841 842
f 810 843 811
f 810 842 843
f 811 844 812
f 811 843 844
f 812 845 813
f 812 844 845
f 813 846 814
f 813 845 846
f 814 847 815
f 814 846 847
f 815 848 816
f 815 847 848
f 816 849 817
f 816 848 849
f 817 850 818
f 817 849 850
f 818 851 819
f 818 850 851
f 819 852 820
f 819 851 852
f 820 853 821
f 820 852 853
f 821 854 822
f 821 853 854
f 822 855 823
f 822 854 855
f 823 856 824
f 823 855 856
f 824 857 825
f 824 856 857
f 825 858 826
f 825 857 858
f 826 859 827
f 826 858 859
f 827 860 828
f 827 859 860
f 828 861 829
f 828 860 861
f 829 862 830
f 829 861 862
f 830 863 831
f 830 862 863
f 831 864 832
f 831 863 864
f 833 866 834
f 833 865 866
f 834 867 835
f 834 866 867
f 835 868 836
f 835 867 868
f 836 869 837
f 836 868 869
f 837 870 838
f 837 869 870
f 838 871 839
f 838 870 871
f 839 872 840
f 839 871 872
f 840 873 841
f 840 872 873
f 841 874 842
f 841 873 874
f 842 875 843
f 842 874 875
f 843 876 844
f 843 875 876
f 844 877 845
f 844 876 877
f 845 878 846
f 845 877 878
f 846 879 847
f 846 878 879
f 847 880 848
f 847 879 880
f 848 881 849
f 848 880 881
f 849 882 850
f 849 881 882
f 850 883 851
f 850 882 883
f 851 884 852
f 851 883 884
f 852 885 853
f 852 884 885
f 853 886 854
f 853 885 886
f 854 887 855
f 854 886 887
f 855 888 856
f 855 887 888
f 856 889 857
f 856 888 889
f 857 890 858
f 857 889 890
f 858 891 859
f 858 890 891
f 859 892 860
f 859 891 892
f 860 893 861
f 860 892 893
f 861 894 862
f 861 893 894
f 862 895 863
f 862 894 895
f 863 896 864
f 863 895 896
f 865 898 866
f 865 897 898
f 866 899 867
f 866 898 899
f 867 900 868
f 867 899 900
f 868 901 869
f 868 900 901
f 869 902 870
f 869 901 902
f 870 903 871
f 870 902 903
f 871 904 872
f 871 903 904
f 872 905 873
f 872 904 905
f 873 906 874
f 873 905 906
f 874 907 875
f 874 906 907
f 875 908 876
f 875 907 908
f 876 909 877
f 876 908 909
f 877 910 878
f 877 909 910
f 878 911 879
f 878 910 911
f 879 912 880
f 879 911 912
f 880 913 881
f 880 912 913
f 881 914 882
f 881 913 914
f 882 915 883
f 882 914 915
f 883 916 884
f 883 915 916
f 884 917 885
f 884 916 917
f 885 918 886
f 885 917 918
f 886 919 887
f 886 918 919
f 887 920 888
f 887 919 920
f 888 921 889
f 888 920 921
f 889 922 890
f 889 921 922
f 890 923 891
f 890 922 923
f 891 924 892
f 891 923 924
f 892 925 893
f 892 924 925
f 893 926 894
f 893 925 926
f 894 927 895
f 894 926 927
f 895 928 896
f 895 927 928
f 897 930 898
f 897 929 930
f 898 931 899
f 898 930 931
f 899 932 900
f 899 931 932
f 900 933 901
f 900 932 933
f 901 934 902
f 901 933 934
f 902 935 903
f 902 934 935
f 903 936 904
f 903 935 936
f 904 937 905
f 904 936 937
f 905 938 906
f 905 937 938
f 906 939 907
f 906 938 939
f 907 940 908
f 907 939 940
f 908 941 909
f 908 940 941
f 909 942 910
f 909 941 942
f 910 943 911
f 910 942 943
f 911 944 912
f 911 943 944
f 912 945 913
f 912 944 945
f 913 946 914
f 913 945 946
f 914 947 915
f 914 946 947
f 915 948 916
f 915 947 948
f 916 949 917
f 916 948 949
f 917 950 918
f 917 949 950
f 918 951 919
f 918 950 951
f 919 952 920
f 919 951 952
f 920 953 921
f 920 952 953
f 921 954 922
f 921 953 954
f 922 955 923
f 922 954 955
f 923 956 924
f 923 955 956
f 924 957 925
f 924 956 957
f 925 958 926
f 925 957 958
f 926 959 927
f 926 958 959
f 927 960 928
f 927 959 960
f 929 962 930
f 929 961 962
f 930 963 931
f 930 962 963
f 931 964 932
f 931 963 964
f 932 965 933
f 932 964 965
f 933 966 934
f 933 965 966
f 934 967 935
f 934 966 967
f 935 968 936
f 935 967 968
f 936 969 937
f 936 968 969
f 937 970 938
f 937 969 970
f 938 971 939
f 938 970 971
f 939 972 940
f 939 971 972
f 940 973 941
f 940 972 973
f 941 974 942
f 941 973 974
f 942 975 943
f 942 974 975
f 943 976 944
f 943 975 976
f 944 977 945
f 944 976 977
f 945 978 946
f 945 977 978
f 946 979 947
f 946 978 979
f 947 980 948
f 947 979 980
f 948 981 949
f 948 980 981
f 949 982 950
f 949 981 982
f 950 983 951
f 950 982 983
f 951 984 952
f 951 983 984
f 952 985 953
f 952 984 985
f 953 986 954
f 953 985 986
f 954 987 955
f 954 986 987
f 955 988 956
f 955 987 988
f 956 989 957
f 956 988 989
f 957 990 958
f 957 989 990
f 958 991 959
f 958 990 991
f 959 992 960
f 959 991 992
f 961 994 962
f 961 993 994
f 962 995 963
f 962 994 995
f 963 996 964
f 963 995 996
f 964 997 965
f 964 996 997
f 965 998 966
f 965 997 998
f 966 999 967
f 966 998 999
f 967 1000 968
f 967 999 1000
f 968 1001 969
f 968 1000 1001
f 969 1002 970
f 969 1001 1002
f 970 1003 971
f 970 1002 1003
f 971 1004 972
f 971 1003 1004
f 972 1005 973
f 972 1004 1005
f 973 1006 974
f 973 1005 1006
f 974 1007 975
f 974 1006 1007
f 975 1008 976
f 975 1007 1008
f 976 1009 977
f 976 1008 1009
f 977 1010 978
f 977 1009 1010
f 978 1011 979
f 978 1010 1011
f 979 1012 980
f 979 1011 1012
f 980 1013 981
f 980 1012 1013
f 981 1014 982
f 981 1013 1014
f 982 1015 983
f 982 1014 1015
f 983 1016 984
f 983 1015 1016
f 984 1017 985
f 984 1016 1017
f 985 1018 986
f 985 1017 1018
f 986 1019 987
f 986 1018 1019
f 987 1020 988
f 987 1019 1020
f 988 1021 989
f 988 1020 1021
f 989 1022 990
f 989 1021 1022
f 990 1023 991
f 990 1022 1023
f 991 1024 992
f 991 1023 1024
